<?xml version="1.0" encoding="utf-8"?>
<!-- Generator: Adobe Illustrator 25.4.1, SVG Export Plug-In . SVG Version: 6.00 Build 0)  -->
<svg version="1.1" id="Standard_product_icon" xmlns="http://www.w3.org/2000/svg" xmlns:xlink="http://www.w3.org/1999/xlink"
	 x="0px" y="0px" viewBox="0 0 192 192" style="enable-background:new 0 0 192 192;" xml:space="preserve">
<style type="text/css">
	.st0{fill:#D5D5D5;}
</style>
<g id="art_layer">
	<circle id="Dot" class="st0" cx="96" cy="111.3" r="28"/>
	<path id="Red" class="st0" d="M160,79.1v40.2v23.8c0,1.7-0.3,3.3-0.8,4.8l0,0l0,0c-1.6,4.9-5.4,8.8-10.4,10.4l0,0l0,0
		c-1.5,0.5-3.1,0.8-4.8,0.8H66l16,16h50h12c4.4,0,8.6-0.9,12.5-2.5c3.8-1.6,7.3-4,10.2-6.9c1.4-1.4,2.8-3,3.9-4.7
		c2.3-3.4,4-7.3,4.8-11.4c0.4-2.1,0.6-4.2,0.6-6.4v-12v-27.8V91.1l-6-19l-10.8,2.2C159.7,75.8,160,77.4,160,79.1z"/>
	<path id="Blue" class="st0" d="M32,79.1c0-1.7,0.3-3.3,0.8-4.8c1.6-4.9,5.4-8.8,10.3-10.3c1.5-0.5,3.1-0.8,4.8-0.8h96
		c1.7,0,3.3,0.3,4.8,0.8l0,0l0.2-11.8l-17-5l-16-16h-13.4H96h-6.6H76l-16,16H48c-17.7,0-32,14.3-32,32v12v20l16,16V79.1z"/>
	<path id="Green" class="st0" d="M144,47.1h-12l16.8,16.8c1.2,0.4,2.4,0.9,3.5,1.6c2.2,1.3,4,3.1,5.3,5.3c0.7,1.1,1.2,2.2,1.6,3.5
		l0,0L176,91.1v-12C176,61.4,161.7,47.1,144,47.1z"/>
	<path id="Yellow" class="st0" d="M48,175.1h39.9l-16-16H48c-8.8,0-16-7.2-16-16v-23.9l-16-16v39.9C16,160.8,30.3,175.1,48,175.1z"
		/>
</g>
</svg>
