<?xml version="1.0" encoding="utf-8"?>
<!-- Generator: Adobe Illustrator 25.4.1, SVG Export Plug-In . SVG Version: 6.00 Build 0)  -->
<svg version="1.1" id="Layer_1" xmlns="http://www.w3.org/2000/svg" xmlns:xlink="http://www.w3.org/1999/xlink" x="0px" y="0px"
	 viewBox="0 0 512 512" style="enable-background:new 0 0 512 512;" xml:space="preserve">
<style type="text/css">
	.st0{fill:#FFFFFF;}
</style>
<g>
	<g>
		<path class="st0" d="M493.9,465.2L385.8,357.1c30.3-36.7,48.5-83.7,48.5-135c0-117.2-95-212.2-212.2-212.2S9.9,104.9,9.9,222.1
			s95,212.2,212.2,212.2c51.3,0,98.3-18.2,135-48.5l108.1,108.1c7.9,7.9,20.8,7.9,28.7,0C501.8,486,501.8,473.1,493.9,465.2z
			 M222.1,391.4c-93.5,0-169.3-75.8-169.3-169.3S128.6,52.8,222.1,52.8s169.3,75.8,169.3,169.3S315.5,391.4,222.1,391.4z"/>
	</g>
</g>
</svg>
