<?xml version="1.0" encoding="iso-8859-1"?>
<!-- Generator: Adobe Illustrator 18.0.0, SVG Export Plug-In . SVG Version: 6.00 Build 0)  -->
<!DOCTYPE svg PUBLIC "-//W3C//DTD SVG 1.1//EN" "http://www.w3.org/Graphics/SVG/1.1/DTD/svg11.dtd">
<svg version="1.1" id="Capa_1" xmlns="http://www.w3.org/2000/svg" xmlns:xlink="http://www.w3.org/1999/xlink" x="0px" y="0px"
	 viewBox="0 0 297.502 297.502" style="enable-background:new 0 0 297.502 297.502;" xml:space="preserve">
<g>
	<g id="XMLID_31_">
		<g>
			<path style="fill:#FFA800;" d="M177.89,133.852c3.64,0,6.6,2.96,6.6,6.59c0,3.64-2.96,6.6-6.6,6.6s-6.6-2.96-6.6-6.6
				C171.29,136.812,174.25,133.852,177.89,133.852z"/>
			<path style="fill:#B8C9F1;" d="M275.51,67.492l-20.48,132.03V90.202c0-5.61-4.54-10.15-10.15-10.15H56.83l7.04-45.39
				L275.51,67.492z"/>
			<path style="fill:#B8C9F1;" d="M234.73,100.352v122.66l-68.37-41.02c-3.99-2.4-9.1-1.77-12.4,1.52l-26.32,26.32l-43.06-43.07
				c-3.97-3.96-10.4-3.96-14.36,0l-49.67,49.67v-116.08H234.73z M204.79,140.442c0-14.83-12.07-26.9-26.9-26.9
				s-26.9,12.07-26.9,26.9c0,14.84,12.07,26.9,26.9,26.9S204.79,155.282,204.79,140.442z"/>
			<path style="fill:#1ABC9C;" d="M234.73,246.682v17.6H20.55v-19.14l56.85-56.84l43.07,43.06c3.96,3.97,10.39,3.97,14.35,0
				l27.89-27.89L234.73,246.682z"/>
			<path d="M288.66,48.982c5.54,0.86,9.33,6.05,8.47,11.59l-28.24,182.06c-0.41,2.66-1.87,5.04-4.04,6.63
				c-1.75,1.28-3.85,1.96-5.99,1.96c-0.52,0-1.04-0.04-1.56-0.12l-2.27-0.35v23.68c0,5.61-4.54,10.15-10.15,10.15H10.4
				c-5.6,0-10.15-4.54-10.15-10.15V90.202c0-5.61,4.55-10.15,10.15-10.15h25.88l9.08-58.54c0.42-2.66,1.87-5.04,4.04-6.63
				c2.17-1.59,4.88-2.26,7.55-1.84L288.66,48.982z M255.03,199.522l20.48-132.03L63.87,34.662l-7.04,45.39h188.05
				c5.61,0,10.15,4.54,10.15,10.15V199.522z M234.73,264.282v-17.6l-72.02-43.21l-27.89,27.89c-3.96,3.97-10.39,3.97-14.35,0
				l-43.07-43.06l-56.85,56.84v19.14H234.73z M234.73,223.012v-122.66H20.55v116.08l49.67-49.67c3.96-3.96,10.39-3.96,14.36,0
				l43.06,43.07l26.32-26.32c3.3-3.29,8.41-3.92,12.4-1.52L234.73,223.012z"/>
			<path d="M177.89,113.542c14.83,0,26.9,12.07,26.9,26.9c0,14.84-12.07,26.9-26.9,26.9s-26.9-12.06-26.9-26.9
				C150.99,125.612,163.06,113.542,177.89,113.542z M184.49,140.442c0-3.63-2.96-6.59-6.6-6.59s-6.6,2.96-6.6,6.59
				c0,3.64,2.96,6.6,6.6,6.6S184.49,144.082,184.49,140.442z"/>
		</g>
		<g>
		</g>
	</g>
</g>
<g>
</g>
<g>
</g>
<g>
</g>
<g>
</g>
<g>
</g>
<g>
</g>
<g>
</g>
<g>
</g>
<g>
</g>
<g>
</g>
<g>
</g>
<g>
</g>
<g>
</g>
<g>
</g>
<g>
</g>
</svg>
